SPORT: Ulster Rugby Live
On: BBC 2 Northern Ireland
Date: Friday 22nd February 2013
Time: 19:30 to 21:30 

Ulster travel to Scotstoun Stadium to take on Glasgow Warriors in the Rabo Direct Pro 12. Stephen Watson presents live coverage of the game while Jim Neilly and Ryan Constable provide the commentary. 



General
Complete name: 2013.02.22.Warriors.v.Ulster.pdtv.x264.mp4
Format: MPEG-4
Format profile: Base Media
Codec ID: isom
File size: 1.58 GiB
Duration: 2h 2mn
Overall bit rate mode: Variable
Overall bit rate: 1 851 Kbps

Video
ID: 1
Format: AVC
Format/Info: Advanced Video Codec
Format profile: High@L3.1
Format settings, CABAC: Yes
Format settings, ReFrames: 8 frames
Codec ID: avc1
Codec ID/Info: Advanced Video Coding
Duration: 2h 2mn
Bit rate: 1 719 Kbps
Maximum bit rate: 5 056 Kbps
Width: 720 pixels
Height: 416 pixels
Display aspect ratio: 1.731
Frame rate mode: Constant
Frame rate: 25.000 fps
Color space: YUV
Chroma subsampling: 4:2:0
Bit depth: 8 bits
Scan type: Progressive
Bits/(Pixel*Frame): 0.230
Stream size: 1.47 GiB (93%)
Writing library: x264 core 129 r2245 bc13772

Audio
ID: 2
Format: AAC
Format/Info: Advanced Audio Codec
Format profile: LC
Codec ID: 40
Duration: 2h 2mn
Bit rate mode: Variable
Bit rate: 128 Kbps
Maximum bit rate: 146 Kbps
Channel(s): 2 channels
Channel positions: Front: L R
Sampling rate: 48.0 KHz
Compression mode: Lossy
Delay relative to video: 80ms
Stream size: 112 MiB (7%)
Language: English